<svg width="474" height="353" viewBox="0 0 474 353" fill="none" xmlns="http://www.w3.org/2000/svg">
<path d="M236.59 352.573C337.928 352.573 420.078 347.777 420.078 341.861C420.078 335.944 337.928 331.148 236.59 331.148C135.252 331.148 53.1016 335.944 53.1016 341.861C53.1016 347.777 135.252 352.573 236.59 352.573Z" fill="#F5F5F5"/>
<path d="M195.235 99.9728C195.358 100.389 195.575 101.023 195.765 101.553L196.37 103.247C196.787 104.373 197.241 105.49 197.723 106.597C198.667 108.789 199.729 110.927 200.903 113.004C203.231 117.073 206.061 120.755 209.42 123.111L210.007 123.518C210.007 123.518 210.007 123.584 210.149 123.603C210.79 123.587 211.417 123.415 211.976 123.102C213.915 122.074 215.699 120.778 217.275 119.25C219.096 117.583 220.83 115.824 222.471 113.979C224.155 112.086 225.811 110.127 227.373 108.206L231.887 110.932C229.542 115.904 226.596 120.569 223.114 124.824C221.202 127.189 218.935 129.245 216.395 130.919C214.726 131.993 212.838 132.682 210.868 132.934C209.615 133.062 208.349 132.946 207.14 132.594C206.516 132.411 205.914 132.163 205.342 131.855L204.253 131.25C201.608 129.655 199.213 127.678 197.146 125.382C195.17 123.223 193.408 120.878 191.884 118.379C190.39 115.953 189.071 113.423 187.938 110.809C187.38 109.521 186.85 108.216 186.367 106.9C186.121 106.238 185.885 105.575 185.667 104.894C185.449 104.212 185.251 103.588 185.023 102.746L195.235 99.9728Z" fill="#B97964"/>
<path d="M205.011 116.695L192.908 123.395C192.908 123.395 192.548 122.875 191.961 121.975C191.535 121.313 191.015 120.442 190.352 119.42C186.794 113.638 180.889 103.077 182.431 98.6006C184.788 91.7111 193.475 91.8247 197.743 99.8119C199.807 103.792 201.655 107.879 203.28 112.058C203.724 113.174 204.094 114.149 204.377 114.897C204.784 116.042 205.011 116.695 205.011 116.695Z" fill="#407BFF"/>
<path opacity="0.2" d="M205.011 116.695L192.908 123.395C192.908 123.395 192.548 122.875 191.961 121.975C191.535 121.313 191.015 120.442 190.352 119.42C186.794 113.638 180.889 103.077 182.431 98.6006C184.788 91.7111 193.475 91.8247 197.743 99.8119C199.807 103.792 201.655 107.879 203.28 112.058C203.724 113.174 204.094 114.149 204.377 114.897C204.784 116.042 205.011 116.695 205.011 116.695Z" fill="black"/>
<path opacity="0.2" d="M204.412 114.944L191.996 121.975C191.57 121.313 191.049 120.442 190.387 119.42L203.314 112.096C203.721 113.212 204.09 114.187 204.412 114.944Z" fill="black"/>
<path opacity="0.2" d="M182.251 99.4333C184.958 98.1274 188.081 99.2157 191.355 104.402C194.63 109.588 197.44 118.294 197.79 120.726L192.955 123.395C192.955 123.395 181.258 106.332 182.251 99.4333Z" fill="black"/>
<path d="M193.479 154.833H155.956C155.691 151.483 156.467 140.581 155.89 126.698C155.533 116.408 154.286 106.168 152.161 96.0927C151.991 95.3356 151.82 94.588 151.641 93.8309C151.641 93.8309 153.533 93.4429 156.268 93.0454C158.53 92.7142 161.369 92.3735 164.151 92.241C169.462 91.938 174.786 91.938 180.097 92.241C182.549 92.4682 184.943 92.8751 186.854 93.2442C189.296 93.7363 190.962 94.1905 190.962 94.1905C190.962 94.1905 199.98 115.379 193.479 154.833Z" fill="#407BFF"/>
<path opacity="0.2" d="M193.479 154.833H155.956C155.691 151.483 156.467 140.581 155.89 126.698C155.533 116.408 154.286 106.168 152.161 96.0927C151.991 95.3356 151.82 94.588 151.641 93.8309C151.641 93.8309 153.533 93.4429 156.268 93.0454C158.53 92.7142 161.369 92.3735 164.151 92.241C169.462 91.938 174.786 91.938 180.097 92.241C182.549 92.4682 184.943 92.8751 186.854 93.2442C189.296 93.7363 190.962 94.1905 190.962 94.1905C190.962 94.1905 199.98 115.379 193.479 154.833Z" fill="black"/>
<path d="M142.309 322.574L147.873 327.552L158.453 316.527L152.898 311.549L142.309 322.574Z" fill="#B97964"/>
<path d="M161.355 332.937H168.368L169.286 316.688H162.264L161.355 332.937Z" fill="#B97964"/>
<path d="M158.451 316.536L152.99 322.214L147.426 317.237L152.886 311.549L158.451 316.536Z" fill="#A76755"/>
<path d="M162.262 316.697H169.284L168.811 325.072H161.789L162.262 316.697Z" fill="#A76755"/>
<path d="M193.117 154.473C193.117 154.473 200.508 205.633 203.035 233.484C205.06 255.818 156.748 322.441 156.748 322.441L147.398 313.65C147.398 313.65 182.688 253.926 179.972 229.055C177.341 204.961 168.426 154.445 168.426 154.445L193.117 154.473Z" fill="#407BFF"/>
<path opacity="0.7" d="M193.117 154.473C193.117 154.473 200.508 205.633 203.035 233.484C205.06 255.818 156.748 322.441 156.748 322.441L147.398 313.65C147.398 313.65 182.688 253.926 179.972 229.055C177.341 204.961 168.426 154.445 168.426 154.445L193.117 154.473Z" fill="black"/>
<path d="M168.738 332.17H160.883C160.818 332.167 160.752 332.178 160.69 332.201C160.628 332.224 160.571 332.259 160.523 332.303C160.475 332.348 160.436 332.402 160.408 332.462C160.381 332.522 160.365 332.587 160.363 332.653L159.984 338.889C159.984 339.217 160.113 339.532 160.344 339.766C160.574 340 160.887 340.133 161.215 340.138C163.959 340.091 165.265 339.921 168.785 339.921C170.915 339.921 179.981 340.148 182.924 340.148C185.867 340.148 185.763 337.233 184.542 336.968C178.94 335.785 172.003 334.129 170.025 332.605C169.662 332.311 169.205 332.157 168.738 332.17Z" fill="#263238"/>
<path d="M149.403 325.546L142.636 320.994C142.527 320.908 142.392 320.862 142.253 320.862C142.114 320.862 141.979 320.908 141.87 320.994L136.702 326.208C136.6 326.323 136.524 326.459 136.48 326.606C136.437 326.754 136.426 326.909 136.45 327.061C136.473 327.213 136.53 327.358 136.616 327.485C136.703 327.613 136.816 327.72 136.949 327.798C141.264 331.12 144.377 333.618 146.828 336.381C149.668 339.618 151.21 340.072 157.835 340.072C160.901 340.072 162.633 337.489 161.383 337.091C150.339 333.599 153.292 332.075 150.614 326.956C150.329 326.395 149.914 325.912 149.403 325.546Z" fill="#263238"/>
<path d="M226.539 109.398L228.952 101.676L235.217 106.266C235.217 106.266 231.791 113.146 229.473 112.521L226.539 109.398Z" fill="#B97964"/>
<path d="M235.545 98.7236L239.075 103.048L235.214 106.266L228.949 101.676L235.545 98.7236Z" fill="#B97964"/>
<path opacity="0.2" d="M155.885 126.698C155.528 116.408 154.281 106.168 152.156 96.0927C154.664 95.875 158.951 96.0927 159.661 100.172C160.427 104.525 159.462 114.764 155.885 126.698Z" fill="black"/>
<path opacity="0.5" d="M179.968 229.074C178.615 216.668 175.587 197.229 172.984 181.312C174.347 178.643 178.161 173.249 178.161 173.249C181.587 185.088 189.034 229.708 178.416 289.982C167.344 307.83 156.745 322.46 156.745 322.46L155.297 299.445C165.527 280.196 181.852 246.288 179.968 229.074Z" fill="black"/>
<path d="M158.44 104.023L156.784 106.862C156.216 107.846 155.667 108.84 155.137 109.843C154.059 111.849 153.021 113.868 152.024 115.9C151.078 117.935 150.131 119.979 149.289 122.023C148.475 124.039 147.765 126.095 147.16 128.184L147.046 128.562L146.989 128.761C146.958 128.813 146.939 128.871 146.932 128.931C146.904 129.224 146.904 129.519 146.932 129.811C147.03 130.705 147.217 131.586 147.491 132.442C148.147 134.496 148.947 136.501 149.885 138.442C151.778 142.511 154.077 146.647 156.377 150.64L152.223 153.886C148.771 150.377 145.651 146.556 142.901 142.473C141.443 140.314 140.176 138.031 139.116 135.65C138.517 134.292 138.054 132.879 137.734 131.43C137.549 130.555 137.454 129.664 137.45 128.77C137.443 128.232 137.481 127.694 137.564 127.161L137.63 126.773V126.527L137.734 126.045C138.753 121.047 140.325 116.178 142.418 111.528C143.412 109.238 144.5 107.004 145.664 104.818C146.251 103.72 146.847 102.641 147.472 101.563C148.097 100.484 148.712 99.4617 149.45 98.3166L158.44 104.023Z" fill="#B97964"/>
<path d="M160.945 106.607C159.196 111.453 157.164 116.193 154.86 120.802C154.359 121.843 153.914 122.77 153.516 123.518C152.854 124.833 152.437 125.628 152.437 125.628L138.242 117.755C138.242 117.755 138.422 117.159 138.744 116.155C138.99 115.398 139.312 114.405 139.69 113.26C142.056 106.512 146.892 94.4744 151.633 93.7836C158.721 92.7994 163.822 98.099 160.945 106.607Z" fill="#407BFF"/>
<path opacity="0.2" d="M154.862 120.849C154.36 121.89 153.916 122.818 153.518 123.565L138.727 116.203C138.973 115.446 139.294 114.452 139.673 113.307L154.862 120.849Z" fill="black"/>
<path d="M171.225 333.344C170.588 333.329 169.953 333.246 169.333 333.097C169.301 333.089 169.272 333.072 169.249 333.049C169.226 333.026 169.209 332.997 169.2 332.965C169.197 332.934 169.202 332.902 169.215 332.874C169.229 332.846 169.25 332.821 169.276 332.804C169.494 332.643 171.49 331.29 172.342 331.621C172.439 331.66 172.525 331.723 172.592 331.804C172.658 331.885 172.702 331.982 172.721 332.085C172.764 332.239 172.767 332.401 172.731 332.556C172.695 332.712 172.619 332.856 172.512 332.974C172.143 333.25 171.685 333.381 171.225 333.344ZM169.806 332.861C171.065 333.107 171.983 333.069 172.314 332.747C172.382 332.668 172.428 332.572 172.448 332.469C172.468 332.366 172.461 332.26 172.427 332.161C172.42 332.11 172.4 332.062 172.369 332.022C172.337 331.982 172.295 331.952 172.247 331.933C171.784 331.754 170.62 332.34 169.806 332.861Z" fill="#407BFF"/>
<path d="M169.399 333.116C169.375 333.124 169.348 333.124 169.323 333.116C169.3 333.103 169.279 333.084 169.265 333.061C169.25 333.037 169.241 333.011 169.238 332.984C169.238 332.899 169.077 330.883 169.787 330.202C169.876 330.112 169.985 330.045 170.105 330.005C170.226 329.966 170.353 329.955 170.478 329.974C170.617 329.981 170.751 330.032 170.858 330.121C170.966 330.21 171.042 330.331 171.074 330.467C171.235 331.233 170.185 332.7 169.484 333.116H169.399ZM170.346 330.277C170.281 330.276 170.216 330.287 170.156 330.312C170.095 330.336 170.041 330.373 169.995 330.419C169.606 331.091 169.443 331.871 169.532 332.643C170.137 332.132 170.838 331.015 170.734 330.514C170.734 330.419 170.658 330.306 170.421 330.277H170.346Z" fill="#407BFF"/>
<path d="M153.948 329.331C152.696 329.139 151.501 328.677 150.446 327.978C150.417 327.961 150.395 327.935 150.381 327.905C150.367 327.874 150.364 327.84 150.37 327.807C150.378 327.773 150.395 327.743 150.421 327.719C150.446 327.695 150.478 327.68 150.512 327.675C150.891 327.675 154.213 327.429 154.856 328.186C154.908 328.252 154.944 328.329 154.96 328.411C154.977 328.493 154.974 328.578 154.951 328.659C154.923 328.79 154.864 328.912 154.778 329.014C154.692 329.116 154.583 329.196 154.459 329.246C154.295 329.305 154.122 329.333 153.948 329.331ZM151.109 327.968C152.623 328.801 153.815 329.161 154.345 328.915C154.423 328.883 154.492 328.833 154.547 328.768C154.601 328.704 154.639 328.628 154.657 328.545C154.673 328.518 154.681 328.487 154.681 328.456C154.681 328.424 154.673 328.393 154.657 328.366C154.26 328.006 152.443 327.94 151.09 327.997L151.109 327.968Z" fill="#407BFF"/>
<path d="M150.527 328.034C150.499 328.035 150.471 328.028 150.447 328.014C150.422 328.001 150.401 327.982 150.385 327.959C150.373 327.934 150.367 327.906 150.367 327.878C150.367 327.85 150.373 327.823 150.385 327.798C150.442 327.684 151.71 325.11 153.328 325.905C153.773 326.123 153.82 326.388 153.783 326.568C153.612 327.325 151.502 328.025 150.537 328.053L150.527 328.034ZM152.713 326.076C151.852 326.076 151.114 327.173 150.82 327.684C151.833 327.552 153.366 326.927 153.461 326.482C153.461 326.378 153.385 326.284 153.186 326.18C153.039 326.109 152.877 326.073 152.713 326.076Z" fill="#407BFF"/>
<path d="M154.494 149.155L161.478 147.943L157.892 156.025C157.892 156.025 151.513 156.025 151.807 152.704L154.494 149.155Z" fill="#B97964"/>
<path d="M166.682 152.003L163.408 158.533L157.891 156.025L161.477 147.943L166.682 152.003Z" fill="#B97964"/>
<path d="M146.828 313.139L157.314 323L160.683 319.375L148.702 308.454L146.828 313.139Z" fill="#407BFF"/>
<path opacity="0.7" d="M146.828 313.139L157.314 323L160.683 319.375L148.702 308.454L146.828 313.139Z" fill="white"/>
<path d="M179.809 154.473C179.809 154.473 180.481 208.094 179.345 228.175C178.096 250.178 171.859 323.047 171.859 323.047H158.989C158.989 323.047 159.367 251.948 158.601 230.172C157.759 206.513 155.582 154.464 155.582 154.464L179.809 154.473Z" fill="#407BFF"/>
<path opacity="0.7" d="M179.809 154.473C179.809 154.473 180.481 208.094 179.345 228.175C178.096 250.178 171.859 323.047 171.859 323.047H158.989C158.989 323.047 159.367 251.948 158.601 230.172C157.759 206.513 155.582 154.464 155.582 154.464L179.809 154.473Z" fill="black"/>
<path d="M158.445 323.047H172.328L173.104 318.173L157.773 318.931L158.445 323.047Z" fill="#407BFF"/>
<path opacity="0.7" d="M158.445 323.047H172.328L173.104 318.173L157.773 318.931L158.445 323.047Z" fill="white"/>
<path opacity="0.2" d="M160.945 106.607C159.196 111.453 157.164 116.193 154.86 120.802C154.359 121.843 153.914 122.77 153.516 123.518C152.854 124.833 152.437 125.628 152.437 125.628L138.242 117.755C138.242 117.755 138.422 117.159 138.744 116.155C138.99 115.398 139.312 114.405 139.69 113.26C142.056 106.512 146.892 94.4744 151.633 93.7836C158.721 92.7994 163.822 98.099 160.945 106.607Z" fill="black"/>
<path d="M186.086 97.7015C185.329 100.209 183.247 103.559 177.427 105.272L175.913 105.727L174.37 105.452C162.494 103.323 158.121 96.9349 157.336 95.6952L155.746 93.0454C158.008 92.7142 160.847 92.3735 163.629 92.241C168.94 91.938 174.264 91.938 179.575 92.241C182.026 92.4682 184.421 92.8751 186.332 93.2442C186.596 94.729 186.512 96.2548 186.086 97.7015Z" fill="#407BFF"/>
<path opacity="0.4" d="M186.086 97.7015C185.329 100.209 183.247 103.559 177.427 105.272L175.913 105.727L174.37 105.452C162.494 103.323 158.121 96.9349 157.336 95.6952L155.746 93.0454C158.008 92.7142 160.847 92.3735 163.629 92.241C168.94 91.938 174.264 91.938 179.575 92.241C182.026 92.4682 184.421 92.8751 186.332 93.2442C186.596 94.729 186.512 96.2548 186.086 97.7015Z" fill="black"/>
<path d="M176.025 98.9318C166.504 97.2189 163.523 92.3073 163.523 92.3073C166.997 88.8815 165.662 79.5221 164.47 74.3834L168.738 77.9227L174.548 82.7491C174.376 83.5229 174.253 84.3068 174.179 85.0961C173.867 88.2474 174.681 91.1149 179.318 92.2127C179.337 92.1843 183.179 96.8025 176.025 98.9318Z" fill="#B97964"/>
<path d="M174.566 82.7207C174.394 83.4945 174.271 84.2784 174.197 85.0677C172.03 84.6324 169.134 82.3233 168.831 80.1088C168.725 79.3757 168.699 78.633 168.756 77.8943L174.566 82.7207Z" fill="#A76755"/>
<path d="M178.512 56.431C181.976 57.9925 183.897 67.7305 179.459 69.8314C175.02 71.9323 171.964 53.469 178.512 56.431Z" fill="#263238"/>
<path d="M162.778 66.964C164.264 73.7872 164.784 77.847 168.816 80.9605C170.116 81.9845 171.671 82.6341 173.313 82.8391C174.955 83.044 176.621 82.7966 178.133 82.1236C179.645 81.4505 180.944 80.3774 181.89 79.0199C182.837 77.6625 183.394 76.0724 183.503 74.4212C184.033 68.0712 181.516 57.9831 174.333 56.0525C172.79 55.5926 171.153 55.5466 169.587 55.9192C168.02 56.2919 166.579 57.07 165.408 58.1755C164.238 59.281 163.378 60.675 162.917 62.2176C162.455 63.7602 162.407 65.3971 162.778 66.964Z" fill="#B97964"/>
<path d="M154.817 60.1975C151.496 61.6644 153.379 66.2069 155.641 69.0932C158.773 73.1058 162.085 74.9796 164.338 73.1342C166.363 72.1216 167.697 66.1501 165.937 62.4688C169.05 60.4152 175.514 62.9514 177.53 59.6297C179.545 56.308 180.984 56.5825 184.533 58.778C188.082 60.9735 190.921 52.2955 181.694 50.6772C186.804 52.9768 185.63 57.4531 181.892 52.8633C179.252 49.6268 172.921 46.0495 168.52 50.8759C165.274 54.3964 153.871 48.9548 154.817 60.1975Z" fill="#263238"/>
<path d="M161.159 74.0805C162.266 75.412 163.796 76.3239 165.494 76.6641C167.642 77.0237 168.124 75.0363 167.036 73.1058C166.09 71.374 163.743 69.0933 161.822 69.6043C159.901 70.1153 159.768 72.4055 161.159 74.0805Z" fill="#B97964"/>
<path d="M173.494 67.6453C173.58 68.2037 173.949 68.5917 174.318 68.5917C174.687 68.5917 174.914 68.0617 174.819 67.5034C174.725 66.945 174.375 66.557 174.005 66.557C173.636 66.557 173.409 67.0775 173.494 67.6453Z" fill="#263238"/>
<path d="M179.809 66.8882C179.894 67.4466 180.263 67.8346 180.632 67.8346C181.001 67.8346 181.228 67.2952 181.143 66.7368C181.058 66.1785 180.689 65.7905 180.32 65.7905C179.951 65.7905 179.809 66.3299 179.809 66.8882Z" fill="#263238"/>
<path d="M177.914 67.4087C178.853 69.043 180.005 70.5451 181.34 71.8755C180.991 72.1948 180.576 72.4332 180.125 72.5739C179.673 72.7145 179.196 72.754 178.728 72.6894L177.914 67.4087Z" fill="#A24E3F"/>
<path d="M176.617 74.4685C175.961 74.4765 175.311 74.3523 174.705 74.1036C174.098 73.8548 173.548 73.4865 173.087 73.0206C173.056 72.9889 173.039 72.9464 173.039 72.9023C173.039 72.8582 173.056 72.8158 173.087 72.784C173.119 72.7534 173.161 72.7362 173.205 72.7362C173.249 72.7362 173.292 72.7534 173.323 72.784C173.834 73.2793 174.45 73.6531 175.125 73.8776C175.8 74.102 176.517 74.1714 177.222 74.0805C177.244 74.0779 177.266 74.0798 177.288 74.0861C177.309 74.0924 177.328 74.103 177.345 74.1172C177.362 74.1314 177.376 74.1489 177.386 74.1686C177.395 74.1884 177.401 74.2099 177.402 74.2319C177.406 74.2533 177.406 74.2753 177.401 74.2964C177.395 74.3175 177.386 74.3372 177.372 74.3543C177.359 74.3714 177.342 74.3853 177.323 74.3952C177.303 74.4051 177.282 74.4108 177.26 74.4117C177.047 74.4438 176.832 74.4628 176.617 74.4685Z" fill="#263238"/>
<path d="M171.215 65.8283C171.163 65.8424 171.107 65.8424 171.054 65.8283C170.978 65.7845 170.921 65.7127 170.896 65.628C170.872 65.5432 170.881 65.4522 170.922 65.3741C171.171 64.914 171.527 64.5207 171.96 64.2274C172.394 63.9342 172.891 63.7497 173.411 63.6896C173.49 63.703 173.562 63.744 173.614 63.8055C173.666 63.867 173.695 63.945 173.695 64.0255C173.695 64.1061 173.666 64.184 173.614 64.2455C173.562 64.307 173.49 64.3481 173.411 64.3615C173.003 64.4081 172.613 64.5542 172.274 64.7868C171.936 65.0195 171.66 65.3316 171.471 65.6958C171.44 65.7352 171.402 65.7675 171.358 65.7904C171.314 65.8133 171.265 65.8262 171.215 65.8283Z" fill="#263238"/>
<path d="M182.238 64.352C182.183 64.3506 182.13 64.3361 182.082 64.3097C182.034 64.2834 181.994 64.246 181.963 64.2006C181.735 63.8417 181.426 63.5405 181.061 63.3205C180.697 63.1006 180.287 62.9678 179.862 62.9325C179.775 62.9325 179.69 62.8976 179.628 62.8355C179.566 62.7733 179.531 62.6891 179.531 62.6013C179.531 62.5134 179.566 62.4292 179.628 62.367C179.69 62.3049 179.775 62.27 179.862 62.27C180.397 62.3005 180.916 62.4581 181.377 62.7297C181.837 63.0013 182.227 63.3791 182.512 63.8315C182.537 63.8675 182.555 63.908 182.564 63.9509C182.574 63.9938 182.575 64.038 182.567 64.0812C182.559 64.1243 182.542 64.1654 182.518 64.2022C182.494 64.2389 182.463 64.2706 182.427 64.2952C182.371 64.3324 182.305 64.3522 182.238 64.352Z" fill="#263238"/>
<g opacity="0.9">
<path opacity="0.9" d="M281.008 173.873C281.813 171.858 283.187 170.12 284.964 168.873C286.74 167.626 288.842 166.923 291.011 166.852H374.442C379.438 166.852 382.817 170.902 382.013 175.908L355.619 333.485C355.153 335.977 353.852 338.236 351.931 339.889C350.009 341.543 347.581 342.492 345.048 342.58H135.847C134.708 342.624 133.574 342.406 132.532 341.944C131.49 341.481 130.568 340.786 129.837 339.911C129.106 339.036 128.585 338.006 128.315 336.898C128.044 335.791 128.031 334.637 128.276 333.523L150.714 199.378C151.189 196.894 152.494 194.644 154.414 192.999C156.335 191.353 158.758 190.409 161.285 190.321H257.643C267.504 190.283 277.185 183.479 281.008 173.873Z" fill="#407BFF"/>
</g>
<path opacity="0.5" d="M281.008 173.873C281.813 171.858 283.187 170.12 284.964 168.873C286.74 167.626 288.842 166.923 291.011 166.852H374.442C379.438 166.852 382.817 170.902 382.013 175.908L355.619 333.485C355.153 335.977 353.852 338.236 351.931 339.889C350.009 341.543 347.581 342.492 345.048 342.58H135.847C134.708 342.624 133.574 342.406 132.532 341.944C131.49 341.481 130.568 340.786 129.837 339.911C129.106 339.036 128.585 338.006 128.315 336.898C128.044 335.791 128.031 334.637 128.276 333.523L150.714 199.378C151.189 196.894 152.494 194.644 154.414 192.999C156.335 191.353 158.758 190.409 161.285 190.321H257.643C267.504 190.283 277.185 183.479 281.008 173.873Z" fill="white"/>
<path opacity="0.9" d="M247.803 33.9646L184.672 253.329L329.085 294.884L392.207 75.519L247.803 33.9646Z" fill="#407BFF"/>
<path opacity="0.7" d="M247.803 33.9646L184.672 253.329L329.085 294.884L392.207 75.519L247.803 33.9646Z" fill="white"/>
<g style="mix-blend-mode:multiply" opacity="0.9">
<path d="M245.002 43.6837L184.672 253.329L324.174 293.474L380.718 76.4937L245.002 43.6837Z" fill="#407BFF"/>
</g>
<path opacity="0.6" d="M245.002 43.6837L184.672 253.329L324.174 293.474L380.718 76.4937L245.002 43.6837Z" fill="#407BFF"/>
<g opacity="0.9">
<g style="mix-blend-mode:multiply" opacity="0.9">
<path d="M245.002 43.6837L184.672 253.329L324.174 293.474L380.718 76.4937L245.002 43.6837Z" fill="white"/>
</g>
<path opacity="0.6" d="M245.002 43.6837L184.672 253.329L324.174 293.474L380.718 76.4937L245.002 43.6837Z" fill="white"/>
</g>
<path d="M296.138 103.076C305.603 92.2522 304.502 75.805 293.679 66.3399C282.855 56.8747 266.408 57.9758 256.943 68.7992C247.478 79.6226 248.579 96.0697 259.402 105.535C270.226 115 286.673 113.899 296.138 103.076Z" fill="#407BFF"/>
<path d="M270.826 105.736C266.906 104.604 263.411 102.335 260.781 99.2159C258.151 96.0971 256.505 92.2687 256.05 88.2145C255.596 84.1604 256.354 80.0625 258.228 76.4389C260.102 72.8153 263.008 69.8286 266.579 67.8565C270.151 65.8844 274.226 65.0154 278.291 65.3592C282.356 65.7031 286.228 67.2445 289.417 69.7885C292.607 72.3325 294.97 75.7649 296.209 79.6518C297.448 83.5387 297.506 87.7057 296.377 91.6259C295.628 94.2315 294.372 96.6637 292.682 98.7835C290.992 100.903 288.901 102.669 286.527 103.98C284.154 105.29 281.546 106.12 278.851 106.421C276.157 106.723 273.43 106.49 270.826 105.736Z" fill="white"/>
<path d="M286.582 127.461L240.617 114.237L237.645 124.569L283.609 137.792L286.582 127.461Z" fill="#407BFF"/>
<path d="M240.947 208.464L215.609 201.174L204.055 241.336L229.393 248.626L240.947 208.464Z" fill="#407BFF"/>
<path d="M330.603 234.262L305.266 226.973L293.711 267.135L319.049 274.424L330.603 234.262Z" fill="#407BFF"/>
<path d="M285.771 221.368L260.434 214.078L248.879 254.24L274.217 261.53L285.771 221.368Z" fill="#407BFF"/>
<path d="M323.724 138.138L292.629 129.192L289.657 139.524L320.751 148.469L323.724 138.138Z" fill="#407BFF"/>
<path d="M347.943 169.413L234.16 136.679L232.936 140.935L346.719 173.67L347.943 169.413Z" fill="white"/>
<path d="M288.133 161.999L231.555 145.722L230.33 149.979L286.908 166.256L288.133 161.999Z" fill="white"/>
<path d="M335.659 175.671L297.816 164.784L296.592 169.041L334.435 179.928L335.659 175.671Z" fill="white"/>
<path d="M319.905 180.926L228.949 154.759L227.725 159.015L318.68 185.183L319.905 180.926Z" fill="white"/>
<path d="M329.754 194.827L225.312 164.365L224.072 168.616L328.513 199.078L329.754 194.827Z" fill="white"/>
<path d="M235.824 176.327L223.746 172.852L222.522 177.109L234.599 180.583L235.824 176.327Z" fill="white"/>
<path d="M298.883 194.471L245.516 179.118L244.291 183.374L297.659 198.727L298.883 194.471Z" fill="white"/>
<path d="M334.932 214.635L221.148 181.901L219.924 186.157L333.707 218.892L334.932 214.635Z" fill="white"/>
<path d="M230.996 41.6395L175.492 263.086L321.231 299.625L376.725 78.1782L230.996 41.6395Z" fill="#407BFF"/>
<path opacity="0.8" d="M230.996 41.6395L175.492 263.086L321.231 299.625L376.725 78.1782L230.996 41.6395Z" fill="white"/>
<path d="M272.834 115.952C285.782 109.699 291.208 94.1337 284.955 81.1865C278.701 68.2393 263.136 62.8128 250.189 69.0662C237.242 75.3195 231.815 90.8847 238.069 103.832C244.322 116.779 259.887 122.206 272.834 115.952Z" fill="#407BFF"/>
<path d="M281.785 96.2429C283.836 85.0351 276.413 74.2867 265.205 72.2358C253.997 70.1848 243.249 77.608 241.198 88.8158C239.147 100.024 246.57 110.772 257.778 112.823C268.986 114.874 279.734 107.451 281.785 96.2429Z" fill="white"/>
<path d="M272.984 133.714L226.59 122.087L223.976 132.515L270.37 144.142L272.984 133.714Z" fill="#407BFF"/>
<path d="M230.172 216.25L204.598 209.84L194.438 250.378L220.012 256.787L230.172 216.25Z" fill="#407BFF"/>
<path d="M320.66 238.931L295.086 232.521L284.926 273.059L310.501 279.468L320.66 238.931Z" fill="#407BFF"/>
<path d="M275.422 227.59L249.848 221.181L239.688 261.718L265.262 268.128L275.422 227.59Z" fill="#407BFF"/>
<path d="M310.463 143.103L279.078 135.237L276.465 145.665L307.85 153.531L310.463 143.103Z" fill="#407BFF"/>
<path d="M335.756 173.519L220.91 144.736L219.833 149.032L334.68 177.815L335.756 173.519Z" fill="white"/>
<path d="M275.731 168.173L218.625 153.861L217.548 158.157L274.655 172.469L275.731 168.173Z" fill="white"/>
<path d="M323.692 180.191L285.496 170.618L284.419 174.914L322.616 184.487L323.692 180.191Z" fill="white"/>
<path d="M308.137 185.998L216.332 162.989L215.255 167.285L307.061 190.294L308.137 185.998Z" fill="white"/>
<path d="M319.584 198.574L214.055 172.126L212.978 176.422L318.507 202.87L319.584 198.574Z" fill="white"/>
<path d="M223.948 184.318L211.758 181.263L210.681 185.559L222.872 188.614L223.948 184.318Z" fill="white"/>
<path d="M287.596 200.259L233.73 186.758L232.654 191.054L286.52 204.555L287.596 200.259Z" fill="white"/>
<path d="M324.315 219.165L209.469 190.382L208.392 194.678L323.238 223.461L324.315 219.165Z" fill="white"/>
<path opacity="0.5" d="M225.29 206.769C225.469 203.22 228.573 200.712 232.794 200.712H316.234C321.231 200.712 326.048 204.204 326.994 208.519L352.044 334.725C352.991 339.041 349.697 342.542 344.7 342.542H135.471C130.465 342.542 125.648 339.041 124.702 334.725L104.1 228.743C103.153 224.428 106.447 220.926 111.453 220.926H207.773C217.662 220.926 224.892 215.059 225.29 206.769Z" fill="#407BFF"/>
</svg>
